<?xml version="1.0" encoding="utf-8"?><!-- Uploaded to: SVG Repo, www.svgrepo.com, Generator: SVG Repo Mixer Tools -->
<svg width="800px" height="800px" viewBox="-4.63 0 53.322 53.322" xmlns="http://www.w3.org/2000/svg">
  <g id="Group_102" data-name="Group 102" transform="translate(-185.052 -200.846)">
    <g id="Group_97" data-name="Group 97">
      <path id="Path_413" data-name="Path 413" d="M227.821,246.83c0-10.119-1.35-18.539-14.779-20.365a7.621,7.621,0,0,1-11.915,0c-13.413,1.827-14.779,10.247-14.779,20.364" fill="#ffffff" stroke="#ff0050" stroke-linecap="round" stroke-linejoin="round" stroke-width="2.592"/>
    </g>
    <g id="Group_98" data-name="Group 98">
      <path id="Path_414" data-name="Path 414" d="M215.321,212.587c0,5.768-4.088,10.813-8.228,10.813s-7.95-5.051-8.229-10.813,3.139-10.445,8.229-10.445S215.321,206.819,215.321,212.587Z" fill="#ffffff"/>
      <path id="Path_415" data-name="Path 415" d="M215.321,212.587c0,5.768-4.088,10.813-8.228,10.813s-7.95-5.051-8.229-10.813,3.139-10.445,8.229-10.445S215.321,206.819,215.321,212.587Z" fill="none" stroke="#ff0050" stroke-linecap="round" stroke-linejoin="round" stroke-width="2.592"/>
    </g>
    <g id="Group_99" data-name="Group 99">
      <path id="Path_416" data-name="Path 416" d="M194.181,237.024c-1.441,3.67-1.4,9.254-1.4,13.1a38.585,38.585,0,0,0,14.306,2.753,37.789,37.789,0,0,0,14.307-2.809c0-3.49-.03-8.516-1.049-12.009" fill="#ffffff" stroke="#ff0050" stroke-linecap="round" stroke-linejoin="round" stroke-width="2.592"/>
    </g>
    <g id="Group_100" data-name="Group 100">
      <path id="Path_417" data-name="Path 417" d="M186.348,246.83c0,.709,3.008,2.373,6.4,2.373" fill="#ffffff" stroke="#ff0050" stroke-linecap="round" stroke-linejoin="round" stroke-width="2.592"/>
    </g>
    <g id="Group_101" data-name="Group 101">
      <path id="Path_418" data-name="Path 418" d="M227.821,246.83c0,.709-3.008,2.373-6.4,2.373" fill="#ffffff" stroke="#ff0050" stroke-linecap="round" stroke-linejoin="round" stroke-width="2.592"/>
    </g>
    <path id="Path_419" data-name="Path 419" d="M214.339,223.918l-7.254,15.528-7.255-15.528" fill="none" stroke="#ff0050" stroke-linecap="round" stroke-linejoin="round" stroke-width="1.555"/>
    <line id="Line_64" data-name="Line 64" y2="6.829" transform="translate(207.084 235.469)" fill="#ffffff" stroke="#ff0050" stroke-linecap="round" stroke-linejoin="round" stroke-width="1.555"/>
    <path id="Path_420" data-name="Path 420" d="M210.337,245.551a3.253,3.253,0,1,1-3.253-3.253A3.252,3.252,0,0,1,210.337,245.551Z" fill="#ffffff" stroke="#ff0050" stroke-linecap="round" stroke-linejoin="round" stroke-width="2.074"/>
  </g>
</svg>